<svg data-v-0dd9719b="" version="1.0" xmlns="http://www.w3.org/2000/svg" xmlns:xlink="http://www.w3.org/1999/xlink"
  width="100%" height="100%" viewBox="0 0 340 250" preserveAspectRatio="xMidYMid meet"
  color-interpolation-filters="sRGB" style="margin: auto;">
  <rect data-v-0dd9719b="" x="0" y="0" width="100%" height="100%" fill="#ffffff" fill-opacity="1" class="background">
  </rect>
  <g data-v-0dd9719b="" class="iconmbgsvg" transform="translate(101.25,56.25)">
    <g fill="#fed465" hollow-target="textFill" mask="url(#8cb8c8c4-3757-460c-a268-35f2c3078af8)">
      <g mask="url(#068cc33d-dcf3-4cc5-a863-ec058ab465f7)">
        <g>
          <rect fill="#fed465" fill-opacity="0" stroke-width="2" x="0" y="0" width="137.5" height="137.5"
            class="image-rect"></rect> <svg x="0" y="0" width="137.5" height="137.5" filtersec="colorsb1993654975"
            class="image-svg-svg primary" style="overflow: visible;"><svg fill="#805ff3"
              xmlns="http://www.w3.org/2000/svg" viewBox="0 0 18 18" x="0px" y="0px">
              <title>user, interface, ui, grid, app, square, shape</title>
              <g>
                <path d="M21,6V18a3,3,0,0,1-3,3H6a3,3,0,0,1-3-3V6A3,3,0,0,1,6,3H18A3,3,0,0,1,21,6Z"></path>
              </g>
            </svg></svg>
          <!---->
        </g>
        <rect v-gra="id" width="149.5" height="149.5" transform="translate(-6, -6)" style="pointer-events:none;"
          fill="url(#-a_iKK8XWdi_J2HYPB1Kd)"></rect>
      </g>
      <g transform="translate(31.68000030517578,34.4849967956543)">
        <g data-gra="path-name" fill-rule="" class="tp-name" fill="url(#f8ad1c3a-18f1-4c72-948b-81a3769b469e)">
          <g transform="scale(1)">
            <g>
              <path
                d="M14.15 0.18L1.87 0.18 10.15-25.36 22.43-25.36 14.15 0.18ZM10.15-29.55L1.87-49.66 7.92-49.66 1.87-64.35 14.15-64.35 22.43-44.32 16.38-44.32 22.43-29.55 10.15-29.55ZM38.54-60.07L79.92-60.07 79.92-59.9 80.01-59.9 80.01-9.97Q80.01-7.92 79.25-6.14 78.5-4.36 77.16-3.03 75.83-1.69 74.05-0.93 72.27-0.18 70.22-0.18L70.22-0.18 56.52-0.18 61.23-8.72 64.88-8.72Q66.04-8.72 66.84-9.52 67.64-10.32 67.64-11.48L67.64-11.48 67.64-52.42 35.16-52.42 28.12-52.42 22.78-52.42 28.12-64.35 40.49-64.35 38.54-60.07ZM54.47-7.92L35.24-7.92 27.23-7.92 25.1-7.92 25.1-22.52 35.24-22.52 35.24-15.57 39.34-15.57 39.34-26.79 25.1-26.79 25.1-34.53 39.34-34.53 39.34-40.05 37.65-40.05 29.28-40.05 25.28-40.05 28.39-50.11 40.67-50.11 39.96-47.7 64.08-47.7 64.08-40.05 50.02-40.05 50.02-34.53 64.26-34.53 64.26-26.79 50.02-26.79 50.02-15.57 51.35-15.57Q52.51-15.57 53.31-16.38 54.11-17.18 54.11-18.33L54.11-18.33 54.11-21.89 64.26-21.89 64.26-17.62Q64.26-15.57 63.5-13.84 62.74-12.1 61.41-10.77 60.07-9.43 58.29-8.68 56.52-7.92 54.47-7.92L54.47-7.92Z"
                transform="translate(-1.8700000047683716, 64.3499984741211)"></path>
            </g>
            <!---->
            <!---->
            <!---->
            <!---->
            <!---->
            <!---->
            <!---->
          </g>
        </g>
        <!---->
      </g>
    </g>
  </g>
  <mask id="8cb8c8c4-3757-460c-a268-35f2c3078af8">
    <g fill="white">
      <g>
        <rect fill-opacity="0" stroke-width="2" x="0" y="0" width="137.5" height="137.5" class="image-rect"></rect> <svg
          x="0" y="0" width="137.5" height="137.5" filtersec="colorsb1993654975" class="image-svg-svg primary"
          style="overflow: visible;"><svg xmlns="http://www.w3.org/2000/svg" viewBox="3 3 18 18" x="0px" y="0px">
            <title>user, interface, ui, grid, app, square, shape</title>
            <g>
              <path d="M21,6V18a3,3,0,0,1-3,3H6a3,3,0,0,1-3-3V6A3,3,0,0,1,6,3H18A3,3,0,0,1,21,6Z"></path>
            </g>
          </svg></svg>
      </g>
    </g>
    <g transform="translate(31.68000030517578,34.4849967956543)" fill="black">
      <g data-gra="path-name" fill-rule="" class="tp-name">
        <g transform="scale(1)">
          <g>
            <path
              d="M14.15 0.18L1.87 0.18 10.15-25.36 22.43-25.36 14.15 0.18ZM10.15-29.55L1.87-49.66 7.92-49.66 1.87-64.35 14.15-64.35 22.43-44.32 16.38-44.32 22.43-29.55 10.15-29.55ZM38.54-60.07L79.92-60.07 79.92-59.9 80.01-59.9 80.01-9.97Q80.01-7.92 79.25-6.14 78.5-4.36 77.16-3.03 75.83-1.69 74.05-0.93 72.27-0.18 70.22-0.18L70.22-0.18 56.52-0.18 61.23-8.72 64.88-8.72Q66.04-8.72 66.84-9.52 67.64-10.32 67.64-11.48L67.64-11.48 67.64-52.42 35.16-52.42 28.12-52.42 22.78-52.42 28.12-64.35 40.49-64.35 38.54-60.07ZM54.47-7.92L35.24-7.92 27.23-7.92 25.1-7.92 25.1-22.52 35.24-22.52 35.24-15.57 39.34-15.57 39.34-26.79 25.1-26.79 25.1-34.53 39.34-34.53 39.34-40.05 37.65-40.05 29.28-40.05 25.28-40.05 28.39-50.11 40.67-50.11 39.96-47.7 64.08-47.7 64.08-40.05 50.02-40.05 50.02-34.53 64.26-34.53 64.26-26.79 50.02-26.79 50.02-15.57 51.35-15.57Q52.51-15.57 53.31-16.38 54.11-17.18 54.11-18.33L54.11-18.33 54.11-21.89 64.26-21.89 64.26-17.62Q64.26-15.57 63.5-13.84 62.74-12.1 61.41-10.77 60.07-9.43 58.29-8.68 56.52-7.92 54.47-7.92L54.47-7.92Z"
              transform="translate(-1.8700000047683716, 64.3499984741211)"></path>
          </g>
        </g>
      </g>
    </g>
  </mask>
  <defs v-gra="od">
    <linearGradient x1="0" y1="1" x2="0" y2="0" id="f8ad1c3a-18f1-4c72-948b-81a3769b469e">
      <stop offset="0%" stop-color="#ff5857"></stop>
      <stop offset="100%" stop-color="#f09819"></stop>
    </linearGradient>
    <filter id="42443b3f1de60f6b6fd3b6a9844b4764" filterUnits="objectBoundingBox">
      <feColorMatrix type="matrix" values="0 0 0 0 0.99609375  0 0 0 0 0.99609375  0 0 0 0 0.99609375  0 0 0 1 0">
      </feColorMatrix>
    </filter>
  </defs>
  <defs v-gra="id">
    <filter id="6dfcda8e-ce21-417e-a61c-debf76a3a1d9" filterUnits="userSpaceOnUse">
      <feColorMatrix type="matrix" values="0 0 0 0 0.99609375  0 0 0 0 0.99609375  0 0 0 0 0.99609375  0 0 0 1 0">
      </feColorMatrix>
    </filter>
    <linearGradient x1="0" y1="1" x2="0" y2="0" id="-a_iKK8XWdi_J2HYPB1Kd">
      <stop offset="0%" stop-color="#ff5857"></stop>
      <stop offset="100%" stop-color="#f09819"></stop>
    </linearGradient>
    <filter id="42443b3f1de60f6b6fd3b6a9844b4764" filterUnits="objectBoundingBox">
      <feColorMatrix type="matrix" values="0 0 0 0 0.99609375  0 0 0 0 0.99609375  0 0 0 0 0.99609375  0 0 0 1 0">
      </feColorMatrix>
    </filter>
  </defs>
</svg>